<?xml version="1.0" standalone="no"?>
<!DOCTYPE svg PUBLIC "-//W3C//DTD SVG 20010904//EN"
 "http://www.w3.org/TR/2001/REC-SVG-20010904/DTD/svg10.dtd">
<svg version="1.0" xmlns="http://www.w3.org/2000/svg"
 width="285.000000pt" height="285.000000pt" viewBox="0 0 285.000000 285.000000"
 preserveAspectRatio="xMidYMid meet">
<metadata>
Created by potrace 1.14, written by Peter Selinger 2001-2017
</metadata>
<g transform="translate(0.000000,285.000000) scale(0.100000,-0.100000)"
fill="#000000" stroke="none">
<path d="M612 1844 c-18 -7 -32 -17 -32 -23 0 -5 -20 -19 -45 -31 -84 -41
-110 -113 -57 -163 36 -34 52 -34 52 1 0 30 25 72 42 72 8 0 9 -84 5 -296 -3
-163 -8 -298 -10 -300 -2 -3 -17 0 -32 6 -35 13 -48 2 -40 -33 5 -20 15 -28
42 -33 30 -6 34 -9 29 -30 -6 -21 -3 -24 24 -24 17 0 43 6 58 14 15 7 53 16
84 19 114 11 210 90 224 183 10 72 -3 114 -49 159 l-42 40 45 30 c118 79 141
224 50 315 -45 45 -107 68 -211 76 -44 4 -79 10 -79 14 0 16 -27 17 -58 4z
m209 -137 c27 -14 52 -37 63 -59 17 -31 18 -41 8 -75 -6 -21 -26 -54 -44 -72
-36 -37 -120 -81 -155 -81 -23 0 -23 1 -23 155 l0 155 53 0 c37 0 68 -7 98
-23z m-36 -367 c53 -26 69 -55 62 -117 -4 -39 -12 -54 -45 -84 -34 -32 -104
-61 -116 -48 -2 2 -6 64 -8 137 l-3 132 34 0 c19 0 53 -9 76 -20z"/>
<path d="M1787 1800 c-62 -19 -60 -4 -52 -350 3 -173 9 -323 11 -332 6 -21 52
-24 76 -5 13 10 15 23 7 81 -9 74 -8 76 49 107 34 19 51 -5 63 -85 10 -76 28
-125 53 -145 21 -17 95 -17 127 0 22 12 23 13 5 23 -72 42 -93 76 -111 180 -4
23 -18 51 -35 68 -16 15 -25 28 -21 28 4 0 26 25 49 56 65 87 55 142 -20 111
-27 -11 -37 -23 -46 -56 -8 -25 -32 -60 -63 -91 -28 -28 -52 -50 -54 -48 -1 2
2 77 7 168 10 187 8 292 -7 296 -5 1 -23 -2 -38 -6z"/>
<path d="M2153 1688 c-48 -23 -48 -117 0 -126 31 -6 77 19 93 50 19 36 10 66
-23 79 -30 11 -42 11 -70 -3z m42 -68 c-10 -11 -23 -20 -28 -20 -6 0 -2 9 8
20 10 11 23 20 28 20 6 0 2 -9 -8 -20z"/>
<path d="M1110 1504 c-47 -40 -80 -115 -87 -194 -5 -61 -3 -75 21 -124 32 -64
66 -89 122 -89 55 0 109 34 137 87 31 59 32 203 0 261 -31 60 -56 79 -94 71
-17 -3 -39 -1 -49 4 -14 8 -25 4 -50 -16z m126 -89 c38 -91 -5 -255 -67 -255
-46 0 -72 115 -49 211 12 48 14 51 22 29 l9 -24 19 31 c15 26 28 37 48 42 2 1
10 -15 18 -34z"/>
<path d="M1436 1479 c-116 -136 -71 -379 71 -383 21 0 56 9 78 20 102 53 126
251 44 364 -30 41 -53 49 -90 30 -13 -7 -19 -7 -19 0 0 5 -11 10 -24 10 -16 0
-36 -14 -60 -41z m159 -114 c9 -69 -1 -126 -29 -167 -47 -71 -106 -20 -106 92
0 63 21 150 28 113 3 -22 5 -21 39 14 33 36 36 37 48 19 8 -10 17 -42 20 -71z"/>
<path d="M2153 1508 l-33 -11 0 -183 c0 -100 3 -189 6 -198 6 -16 50 -22 70
-8 6 4 14 54 17 112 4 58 10 149 13 203 l7 97 -24 -1 c-13 -1 -39 -6 -56 -11z"/>
</g>
</svg>
