<?xml version="1.0" encoding="utf-8"?>
<!-- Generator: Adobe Illustrator 21.0.0, SVG Export Plug-In . SVG Version: 6.00 Build 0)  -->
<svg version="1.1" id="Layer_1" xmlns="http://www.w3.org/2000/svg" xmlns:xlink="http://www.w3.org/1999/xlink" x="0px" y="0px"
	 viewBox="0 0 512 512" style="enable-background:new 0 0 512 512;" xml:space="preserve">
<path d="M511.3,199.8c-2.2-7.1-8.8-12-16.3-12v17l-0.1-0.1v-17h-171L272.2,28.9c-2.3-7-8.9-11.8-16.2-11.8c-7.3,0-14,4.8-16.2,11.8
	l-51.6,158.9H17.1c-7.5,0-14.1,4.9-16.3,12c-2.2,7.1,0.5,14.9,6.7,19.1L146.1,314L92.6,472.4c-2.4,7,0.1,14.8,6.1,19.2
	s14.1,4.4,20.1,0.1L256,392.3l137.2,99.4c6,4.4,14.2,4.3,20.1-0.1c6-4.4,8.4-12.2,6.1-19.2L365.9,314l138.7-95.1
	C510.8,214.7,513.5,206.9,511.3,199.8z M329.4,312.6l40.5,120L266,357.4c-6-4.3-14.1-4.3-20,0l-103.9,75.3l40.5-120
	c2.4-7.2-0.2-15.2-6.5-19.5l-104-71.3h128.4c7.4,0,14-4.8,16.2-11.8L256,89.4l39.2,120.7c2.3,7,8.9,11.8,16.2,11.8h128.4
	l-103.9,71.2C329.6,297.4,326.9,305.4,329.4,312.6z"/>
</svg>
